<?xml version="1.0" encoding="utf-8"?>
<!-- Generator: Adobe Illustrator 25.2.0, SVG Export Plug-In . SVG Version: 6.00 Build 0)  -->
<svg version="1.1" id="Layer_1" xmlns="http://www.w3.org/2000/svg" xmlns:xlink="http://www.w3.org/1999/xlink" x="0px" y="0px"
	 viewBox="0 0 500 500" style="enable-background:new 0 0 500 500;" xml:space="preserve">
<style type="text/css">
	.st0{fill:none;stroke:#939393;stroke-width:5;stroke-miterlimit:10;}
</style>
<g>
	<path class="st0" d="M137.2,380c-10.9-10.2-21.7-20.4-32.7-30.5c-2.5-2.3-1.4-4.6-0.2-6.6c3.6-5.9,1.5-10.3-3.3-14.3
		c-3-2.5-5.8-5.2-8.3-8.1c-3.5-4.1-3-6.4,2.1-7.9c3.3-1,3.2-2.3,1.9-4.7c-0.9-1.6-1.4-3.4-2.4-4.9c-2.8-4.2-2.3-7.5,2.2-10.2
		c3.9-2.4,4-5.1,1.8-9.2c-4.7-8.8-5.2-18.8-6.3-28.6c-1-8.7-5.1-17.5,0.3-26.2c-1.9-20.7,9.5-37.6,16.3-55.7
		c1.2-3.1,1.4-5.6,0.3-8.8c-2.8-8-1.9-16.1-0.3-24.2c0.6-2.9,2.7-4.5,4.7-6.2c20.4-17.9,43.4-32,66.7-45.8
		c25.2-14.9,50.7-29.2,74-47c3.2-2.5,6.4-5.1,9.6-7.7c6.9-5.7,8.3-6,16.1-1.4c10.4,6.1,18.7,14.5,24.9,24.9c1.6,2.7,3.7,5.4,1.5,9
		c-1.2,1.9,0.2,3.9,1.4,5.6c2.3,3.2,6.2,5.4,5.6,10.4c-0.3,2,2.1,1.5,3.3,1.6c3.7,0.2,7.4,0.3,11,0.3c4.1,0,5.5,2.1,3.4,5.4
		c-2.9,4.4-0.1,5.8,3,7.8c5,3.3,11.6,4.6,13.6,11.5c0.4,1.5,1.7,1.5,3,1.3c14.7-1.6,25.7,6.1,35.4,15.3c5,4.7,9.3,6.4,15.6,4.4
		c5.6-1.8,7.8,1.3,8.7,6.3c0.5,3-0.1,4.8-2.9,6.6c-5.2,3.2-11.2,5-14.4,11.4c-1.8,3.6-7.3,2.4-9.9,0c-7.3-6.7-16.4-6.5-25.1-8.1
		c-4.4-0.8-9-0.8-13.4-1.2c-6-0.5-11.8-0.6-16.9,3.6c-0.9,0.8-2.2,1.5-3.3,1.5c-8.8,0.1-12.2,6.8-16.4,12.7
		c-8.9,12.5-18.5,24.5-28.1,36.2c0,1.3,0.8,1.5,1.6,1.7c6.1,2.5,6.8,4.4,1.6,8.1c-6.3,4.6-6.9,9.3-3,15.4c6.3,10,6.2,20,1,30.7
		c-5.3,11.1-6.3,22.7-0.2,34.6c-5.7,0.4-9.9-2.1-14.5-2.7c-3-0.4-6-1.3-9.1-1.5c-6.8-0.6-7.9,1-5.9,7.4c8.4,26.6,13,53.8,8.1,81.6
		c-1.7,9.8-3.9,18.8-1.6,29c2.1,9.1-2.1,18.1-5.9,26.6c-5.6,12.7-13.2,24.5-16.1,38.4c-0.8,3.6-7.3,4.9-10.1,2
		c-4.7-4.9-10.5-6.6-16.8-8.1c-12.4-2.9-24.5-6.4-35.9-12.2c-4.2-2.2-8.2-4.6-11.4-8.2c-4.2-4.6-5.3-9.7-1.9-15.1
		c1.6-2.6,1.5-3.5-1.2-5.4c-5-3.4-7.5-7.5-5-14.8c4.6-13.6,2-27.5-1.8-41.1c-0.6-2-1.3-3.3-3.6-3.3c-2.5-0.1-3,1.6-3.8,3.3
		C141.6,370.2,139.1,375.8,137.2,380z"/>
</g>
</svg>
