<?xml version="1.0" encoding="utf-8"?>
<!-- Generator: Adobe Illustrator 25.2.0, SVG Export Plug-In . SVG Version: 6.00 Build 0)  -->
<svg version="1.1" id="Layer_1" xmlns="http://www.w3.org/2000/svg" xmlns:xlink="http://www.w3.org/1999/xlink" x="0px" y="0px"
	 viewBox="0 0 555.8 60.8" style="enable-background:new 0 0 555.8 60.8;" xml:space="preserve">
<style type="text/css">
	.st0{fill:#F58333;}
</style>
<g id="XMLID_16_">
	<path id="XMLID_17_" d="M12.3,9.6c6.2,0,10.5,3.4,11.8,9.2h-8c-0.6-1.7-1.8-2.8-3.9-2.8c-2.7,0-4.5,2.1-4.5,6.2s1.8,6.2,4.5,6.2
		c2.1,0,3.3-1,3.9-2.8h8c-1.3,5.7-5.6,9.2-11.8,9.2C5.1,34.8,0,30,0,22.2C0,14.5,5.1,9.6,12.3,9.6z"/>
	<path id="XMLID_19_" d="M37.4,9.6c3.7,0,6.2,1.7,7.6,3.8V9.9h7.5v24.6H45V31c-1.4,2.2-4,3.8-7.6,3.8c-6,0-10.8-4.9-10.8-12.7
		C26.6,14.4,31.4,9.6,37.4,9.6z M39.6,16.1c-2.8,0-5.4,2.1-5.4,6s2.6,6.1,5.4,6.1c2.9,0,5.4-2.2,5.4-6.1
		C45,18.3,42.5,16.1,39.6,16.1z"/>
	<path id="XMLID_22_" d="M65.5,34.5H58V9.9h7.5V14c1.7-2.6,4.4-4.4,7.7-4.4v8h-2.1c-3.6,0-5.6,1.2-5.6,5.5L65.5,34.5L65.5,34.5z"/>
	<path id="XMLID_24_" d="M86.2,9.6c3.7,0,6.2,1.7,7.6,3.8V9.9h7.5v24.6h-7.5V31c-1.4,2.2-4,3.8-7.6,3.8c-6,0-10.8-4.9-10.8-12.7
		C75.3,14.4,80.1,9.6,86.2,9.6z M88.4,16.1c-2.8,0-5.4,2.1-5.4,6s2.6,6.1,5.4,6.1c2.9,0,5.4-2.2,5.4-6.1
		C93.7,18.3,91.2,16.1,88.4,16.1z"/>
	<path id="XMLID_27_" d="M112.4,9.9l5.3,17.5L123,9.9h8l-8.7,24.6H113l-8.7-24.6H112.4z"/>
	<path id="XMLID_29_" d="M143.6,9.6c3.7,0,6.2,1.7,7.6,3.8V9.9h7.5v24.6h-7.5V31c-1.4,2.2-4,3.8-7.6,3.8c-6,0-10.8-4.9-10.8-12.7
		C132.7,14.4,137.5,9.6,143.6,9.6z M145.8,16.1c-2.8,0-5.4,2.1-5.4,6s2.6,6.1,5.4,6.1c2.9,0,5.4-2.2,5.4-6.1
		C151.1,18.3,148.6,16.1,145.8,16.1z"/>
	<path id="XMLID_32_" d="M181.1,21.2c0-3.3-1.8-5.2-4.7-5.2s-4.7,1.8-4.7,5.2v13.3h-7.5V9.9h7.5v3.3c1.5-2.1,4.1-3.5,7.4-3.5
		c5.7,0,9.5,3.9,9.5,10.5v14.3h-7.5V21.2z"/>
	<path id="XMLID_34_" d="M203.8,34.8c-6.6,0-11-3.7-11.3-8.4h7.4c0.2,1.7,1.7,2.9,3.8,2.9c1.9,0,2.9-0.9,2.9-2
		c0-4-13.4-1.1-13.4-10.1c0-4.2,3.6-7.6,10-7.6c6.3,0,9.9,3.5,10.3,8.4h-7c-0.2-1.7-1.5-2.8-3.6-2.8c-1.8,0-2.7,0.7-2.7,1.9
		c0,3.9,13.3,1.1,13.4,10.3C213.7,31.6,209.9,34.8,203.8,34.8z"/>
	<path id="XMLID_36_" d="M219.1,16.2h-2.7V9.9h2.7V9.2c0-6.4,4-9.6,11.4-9.2v6.4c-2.9-0.2-3.9,0.7-3.9,3.3v0.2h4v6.2h-4v18.3h-7.5
		V16.2z"/>
	<path id="XMLID_38_" d="M245.3,34.8c-7.2,0-12.7-4.8-12.7-12.6s5.6-12.6,12.8-12.6c7.2,0,12.8,4.8,12.8,12.6S252.6,34.8,245.3,34.8
		z M245.3,28.3c2.7,0,5.2-2,5.2-6.1c0-4.2-2.5-6.1-5.1-6.1c-2.7,0-5.1,1.9-5.1,6.1C240.3,26.3,242.6,28.3,245.3,28.3z"/>
	<path id="XMLID_41_" d="M269.7,34.5h-7.5V9.9h7.5V14c1.7-2.6,4.4-4.4,7.7-4.4v8h-2.1c-3.6,0-5.6,1.2-5.6,5.5V34.5z"/>
	<path id="XMLID_43_" d="M291,34.8c-6.6,0-11-3.7-11.3-8.4h7.4c0.2,1.7,1.7,2.9,3.8,2.9c1.9,0,2.9-0.9,2.9-2c0-4-13.4-1.1-13.4-10.1
		c0-4.2,3.6-7.6,10-7.6c6.3,0,9.9,3.5,10.3,8.4h-7c-0.2-1.7-1.5-2.8-3.6-2.8c-1.8,0-2.7,0.7-2.7,1.9c0,3.9,13.3,1.1,13.4,10.3
		C301,31.6,297.2,34.8,291,34.8z"/>
	<path id="XMLID_45_" d="M314.9,9.6c3.7,0,6.2,1.7,7.6,3.8V9.9h7.5v24.6h-7.5V31c-1.4,2.2-4,3.8-7.6,3.8c-6,0-10.8-4.9-10.8-12.7
		C304.1,14.4,308.9,9.6,314.9,9.6z M317.1,16.1c-2.8,0-5.4,2.1-5.4,6s2.6,6.1,5.4,6.1c2.9,0,5.4-2.2,5.4-6.1
		C322.5,18.3,320,16.1,317.1,16.1z"/>
	<path id="XMLID_48_" d="M335.5,1.9h7.5v32.6h-7.5V1.9z"/>
	<path id="XMLID_50_" d="M359.3,34.8c-7.2,0-12.4-4.8-12.4-12.6S352,9.6,359.3,9.6c7.2,0,12.2,4.8,12.2,12.2c0,0.7,0,1.5-0.1,2.2
		h-17c0.3,3.2,2.2,4.7,4.7,4.7c2.1,0,3.3-1.1,3.9-2.4h8C369.8,31.1,365.5,34.8,359.3,34.8z M354.5,19.8h9.4c0-2.7-2.1-4.2-4.6-4.2
		S354.9,17.1,354.5,19.8z"/>
	<path id="XMLID_53_" class="st0" d="M379.1,34.8c-2.7,0-4.5-1.8-4.5-4c0-2.3,1.8-4.1,4.5-4.1c2.6,0,4.4,1.8,4.4,4.1
		C383.5,33,381.7,34.8,379.1,34.8z"/>
	<path id="XMLID_55_" class="st0" d="M398.8,9.6c6.2,0,10.5,3.4,11.8,9.2h-8c-0.6-1.7-1.8-2.8-3.9-2.8c-2.7,0-4.5,2.1-4.5,6.2
		s1.8,6.2,4.5,6.2c2.1,0,3.3-1,3.9-2.8h8c-1.3,5.7-5.6,9.2-11.8,9.2c-7.2,0-12.3-4.8-12.3-12.6C386.4,14.5,391.6,9.6,398.8,9.6z"/>
	<path id="XMLID_57_" class="st0" d="M425.7,34.8c-7.2,0-12.7-4.8-12.7-12.6s5.6-12.6,12.8-12.6c7.2,0,12.8,4.8,12.8,12.6
		S433,34.8,425.7,34.8z M425.7,28.3c2.7,0,5.2-2,5.2-6.1c0-4.2-2.5-6.1-5.1-6.1c-2.7,0-5.1,1.9-5.1,6.1
		C420.7,26.3,423,28.3,425.7,28.3z"/>
	<path id="XMLID_60_" class="st0" d="M476.4,21.2c0-3.2-1.8-5-4.7-5s-4.7,1.8-4.7,5v13.3h-7.5V21.2c0-3.2-1.8-5-4.7-5
		s-4.7,1.8-4.7,5v13.3h-7.5V9.9h7.5V13c1.5-2,4-3.3,7.2-3.3c3.7,0,6.7,1.6,8.4,4.6c1.6-2.6,4.7-4.6,8.3-4.6c6.1,0,10,3.9,10,10.5
		v14.3h-7.5L476.4,21.2L476.4,21.2z"/>
	<path id="XMLID_62_" d="M492.7,34.8c-2.7,0-4.5-1.8-4.5-4c0-2.3,1.8-4.1,4.5-4.1c2.6,0,4.4,1.8,4.4,4.1
		C497.2,33,495.3,34.8,492.7,34.8z"/>
	<path id="XMLID_64_" d="M510.9,9.6c3.7,0,6.2,1.7,7.6,3.8V9.9h7.5v24.6h-7.5V31c-1.4,2.2-4,3.8-7.6,3.8c-6,0-10.8-4.9-10.8-12.7
		C500.1,14.4,504.9,9.6,510.9,9.6z M513.1,16.1c-2.8,0-5.4,2.1-5.4,6s2.6,6.1,5.4,6.1c2.9,0,5.4-2.2,5.4-6.1
		C518.5,18.3,516,16.1,513.1,16.1z"/>
	<path id="XMLID_67_" d="M555.7,34.5h-7.5v-3.3c-1.5,2.1-4.1,3.6-7.4,3.6c-5.7,0-9.5-3.9-9.5-10.5V9.9h7.5v13.3
		c0,3.3,1.9,5.2,4.7,5.2c2.9,0,4.8-1.8,4.8-5.2V9.9h7.5L555.7,34.5L555.7,34.5z"/>
</g>
<g>
	<path d="M335.9,42h2.6l-0.8,4.3l-0.4,1.4h0.2c0.3-0.4,0.8-0.8,1.3-1.1c0.6-0.3,1.2-0.4,2-0.4c0.6,0,1.2,0.1,1.7,0.4
		c0.5,0.3,1,0.6,1.3,1.1c0.4,0.5,0.6,1,0.7,1.7c0.1,0.6,0.1,1.4,0,2.1c-0.1,0.8-0.4,1.5-0.8,2.1s-0.8,1.2-1.3,1.7s-1.1,0.8-1.7,1.1
		s-1.2,0.4-1.9,0.4c-0.8,0-1.4-0.1-1.8-0.4c-0.5-0.3-0.8-0.7-0.9-1.1h-0.2l-0.2,1.2h-2.5L335.9,42z M338.8,54.3c0.4,0,0.7-0.1,1-0.2
		c0.3-0.1,0.7-0.3,0.9-0.6c0.3-0.2,0.5-0.5,0.7-0.9c0.2-0.3,0.3-0.7,0.4-1.2c0.1-0.4,0.1-0.8,0-1.2c-0.1-0.3-0.2-0.6-0.4-0.9
		c-0.2-0.2-0.4-0.4-0.7-0.6c-0.3-0.1-0.6-0.2-1-0.2c-0.3,0-0.7,0.1-1,0.2c-0.3,0.1-0.6,0.3-0.9,0.6c-0.3,0.2-0.5,0.5-0.7,0.9
		s-0.4,0.7-0.4,1.2c-0.1,0.4-0.1,0.8,0,1.2s0.2,0.6,0.4,0.9c0.2,0.2,0.4,0.4,0.7,0.6C338.2,54.3,338.5,54.3,338.8,54.3z"/>
	<path d="M348.2,56l-2.5-9.4h3l1.4,6h0.1l3.5-6h2.9l-8.7,14.2h-2.8L348.2,56z"/>
	<path d="M373.6,54.1c-0.9,0.9-1.8,1.5-2.9,2c-1,0.5-2.2,0.7-3.4,0.7c-1.1,0-2-0.2-2.9-0.6c-0.9-0.4-1.6-0.9-2.1-1.6
		c-0.6-0.7-0.9-1.5-1.2-2.4c-0.2-0.9-0.2-1.9-0.1-3c0.2-1.1,0.6-2.1,1.1-3c0.6-0.9,1.2-1.7,2-2.4c0.8-0.7,1.7-1.2,2.7-1.6
		s2-0.6,3.1-0.6c1.2,0,2.1,0.2,2.9,0.6s1.5,1,2,1.8l-2.2,1.9c-0.3-0.5-0.8-0.9-1.3-1.2c-0.5-0.3-1.1-0.4-1.9-0.4
		c-0.7,0-1.3,0.1-2,0.4c-0.6,0.2-1.2,0.6-1.7,1c-0.5,0.4-0.9,0.9-1.3,1.6c-0.4,0.6-0.6,1.3-0.7,2c-0.1,0.8-0.1,1.4,0,2
		s0.4,1.1,0.8,1.6c0.4,0.4,0.8,0.8,1.4,1c0.5,0.2,1.2,0.4,1.8,0.4c0.8,0,1.6-0.2,2.2-0.5c0.7-0.3,1.3-0.8,1.9-1.4L373.6,54.1z"/>
	<path d="M380.9,55.4h-0.2c-0.4,0.4-0.8,0.7-1.3,1s-1.1,0.4-1.8,0.4c-0.5,0-1-0.1-1.4-0.3s-0.8-0.4-1.1-0.7
		c-0.3-0.3-0.5-0.7-0.6-1.1s-0.1-0.9,0-1.4s0.3-1,0.5-1.4c0.3-0.4,0.6-0.8,1-1.1s0.9-0.5,1.4-0.7s1.1-0.2,1.6-0.2
		c0.6,0,1.2,0.1,1.6,0.2c0.4,0.1,0.7,0.2,1,0.3l0.1-0.3c0.1-0.5,0-1-0.4-1.3s-0.8-0.5-1.5-0.5c-0.9,0-1.8,0.4-2.5,1.1l-1.7-1.3
		c1.3-1.3,2.8-2,4.6-2c1.5,0,2.6,0.4,3.3,1.1c0.7,0.7,0.9,1.8,0.6,3.2l-1,5.9h-2.6L380.9,55.4z M381.4,52.4
		c-0.3-0.1-0.6-0.3-0.9-0.4c-0.3-0.1-0.7-0.1-1.1-0.1c-0.6,0-1.1,0.1-1.5,0.4s-0.6,0.6-0.7,1s0,0.7,0.3,1c0.3,0.2,0.6,0.4,1.1,0.4
		c0.3,0,0.7-0.1,1-0.2c0.3-0.1,0.6-0.3,0.8-0.5c0.2-0.2,0.4-0.5,0.6-0.7C381.2,53,381.3,52.7,381.4,52.4z"/>
	<path d="M387.1,46.6h2.5l-0.2,1.4h0.2c0.2-0.2,0.4-0.5,0.6-0.7s0.5-0.4,0.8-0.5c0.3-0.2,0.6-0.3,0.9-0.4c0.3-0.1,0.6-0.1,0.9-0.1
		s0.6,0,0.9,0.1c0.2,0.1,0.4,0.2,0.6,0.3l-1.1,2.4c-0.1-0.1-0.3-0.1-0.5-0.2c-0.2,0-0.4-0.1-0.7-0.1c-0.4,0-0.7,0.1-1,0.2
		c-0.3,0.1-0.6,0.3-0.9,0.6s-0.5,0.6-0.6,0.9c-0.2,0.3-0.3,0.7-0.4,1.1l-0.9,4.9h-2.6L387.1,46.6z"/>
	<path d="M399.4,55.4h-0.2c-0.4,0.4-0.8,0.7-1.3,1s-1.1,0.4-1.8,0.4c-0.5,0-1-0.1-1.4-0.3s-0.8-0.4-1.1-0.7
		c-0.3-0.3-0.5-0.7-0.6-1.1s-0.1-0.9,0-1.4s0.3-1,0.5-1.4c0.3-0.4,0.6-0.8,1-1.1s0.9-0.5,1.4-0.7s1.1-0.2,1.6-0.2
		c0.6,0,1.2,0.1,1.6,0.2c0.4,0.1,0.7,0.2,1,0.3l0.1-0.3c0.1-0.5,0-1-0.4-1.3s-0.8-0.5-1.5-0.5c-0.9,0-1.8,0.4-2.5,1.1l-1.7-1.3
		c1.3-1.3,2.8-2,4.6-2c1.5,0,2.6,0.4,3.3,1.1c0.7,0.7,0.9,1.8,0.6,3.2l-1,5.9H399L399.4,55.4z M400,52.4c-0.3-0.1-0.6-0.3-0.9-0.4
		c-0.3-0.1-0.7-0.1-1.1-0.1c-0.6,0-1.1,0.1-1.5,0.4s-0.6,0.6-0.7,1s0,0.7,0.3,1c0.3,0.2,0.6,0.4,1.1,0.4c0.3,0,0.7-0.1,1-0.2
		c0.3-0.1,0.6-0.3,0.8-0.5c0.2-0.2,0.4-0.5,0.6-0.7C399.8,53,399.9,52.7,400,52.4z"/>
	<path d="M404.5,46.6h3l1.4,6.3h0.1l3.6-6.3h3l-6,9.9H407L404.5,46.6z"/>
	<path d="M421.1,55.4h-0.2c-0.4,0.4-0.8,0.7-1.3,1s-1.1,0.4-1.8,0.4c-0.5,0-1-0.1-1.4-0.3s-0.8-0.4-1.1-0.7
		c-0.3-0.3-0.5-0.7-0.6-1.1s-0.1-0.9,0-1.4s0.3-1,0.5-1.4c0.3-0.4,0.6-0.8,1-1.1s0.9-0.5,1.4-0.7s1.1-0.2,1.6-0.2
		c0.6,0,1.2,0.1,1.6,0.2c0.4,0.1,0.7,0.2,1,0.3l0.1-0.3c0.1-0.5,0-1-0.4-1.3s-0.8-0.5-1.5-0.5c-0.9,0-1.8,0.4-2.5,1.1l-1.7-1.3
		c1.3-1.3,2.8-2,4.6-2c1.5,0,2.6,0.4,3.3,1.1c0.7,0.7,0.9,1.8,0.6,3.2l-1,5.9h-2.6L421.1,55.4z M421.6,52.4
		c-0.3-0.1-0.6-0.3-0.9-0.4c-0.3-0.1-0.7-0.1-1.1-0.1c-0.6,0-1.1,0.1-1.5,0.4s-0.6,0.6-0.7,1s0,0.7,0.3,1c0.3,0.2,0.6,0.4,1.1,0.4
		c0.3,0,0.7-0.1,1-0.2c0.3-0.1,0.6-0.3,0.8-0.5c0.2-0.2,0.4-0.5,0.6-0.7C421.4,53,421.5,52.7,421.6,52.4z"/>
	<path d="M429.6,47.9h0.2c0.4-0.5,0.9-0.9,1.5-1.2s1.2-0.4,1.9-0.4c0.6,0,1.1,0.1,1.6,0.3c0.4,0.2,0.8,0.5,1,0.9s0.4,0.8,0.5,1.3
		s0,1.1-0.1,1.7l-1.1,6h-2.6l1-5.7c0.1-0.7,0.1-1.2-0.2-1.6c-0.3-0.3-0.7-0.5-1.3-0.5c-0.4,0-0.7,0.1-1,0.2
		c-0.3,0.2-0.6,0.4-0.8,0.6c-0.2,0.3-0.4,0.6-0.6,0.9c-0.2,0.4-0.3,0.7-0.4,1.1l-0.9,4.8h-2.6l1.7-9.9h2.5L429.6,47.9z"/>
	<path d="M444.4,42h2.7l3.1,7.6h0.2l5.8-7.6h2.7l-2.5,14.4h-2.7l1.3-7.1l0.6-2.4h-0.2l-4.8,6.5H449l-2.5-6.5h-0.2l-0.3,2.4l-1.3,7.1
		H442L444.4,42z"/>
	<path d="M464.8,55.4h-0.2c-0.4,0.4-0.8,0.7-1.3,1s-1.1,0.4-1.8,0.4c-0.5,0-1-0.1-1.4-0.3s-0.8-0.4-1.1-0.7
		c-0.3-0.3-0.5-0.7-0.6-1.1s-0.1-0.9,0-1.4s0.3-1,0.5-1.4c0.3-0.4,0.6-0.8,1-1.1s0.9-0.5,1.4-0.7s1.1-0.2,1.6-0.2
		c0.6,0,1.2,0.1,1.6,0.2c0.4,0.1,0.7,0.2,1,0.3l0.1-0.3c0.1-0.5,0-1-0.4-1.3s-0.8-0.5-1.5-0.5c-0.9,0-1.8,0.4-2.5,1.1l-1.7-1.3
		c1.3-1.3,2.8-2,4.6-2c1.5,0,2.6,0.4,3.3,1.1c0.7,0.7,0.9,1.8,0.6,3.2l-1,5.9h-2.6L464.8,55.4z M465.3,52.4
		c-0.3-0.1-0.6-0.3-0.9-0.4c-0.3-0.1-0.7-0.1-1.1-0.1c-0.6,0-1.1,0.1-1.5,0.4s-0.6,0.6-0.7,1s0,0.7,0.3,1c0.3,0.2,0.6,0.4,1.1,0.4
		c0.3,0,0.7-0.1,1-0.2c0.3-0.1,0.6-0.3,0.8-0.5c0.2-0.2,0.4-0.5,0.6-0.7C465.2,53,465.3,52.7,465.3,52.4z"/>
	<path d="M471.1,46.6h2.5l-0.2,1.4h0.2c0.2-0.2,0.4-0.5,0.6-0.7s0.5-0.4,0.8-0.5c0.3-0.2,0.6-0.3,0.9-0.4c0.3-0.1,0.6-0.1,0.9-0.1
		s0.6,0,0.9,0.1c0.2,0.1,0.4,0.2,0.6,0.3l-1.1,2.4c-0.1-0.1-0.3-0.1-0.5-0.2c-0.2,0-0.4-0.1-0.7-0.1c-0.4,0-0.7,0.1-1,0.2
		s-0.6,0.3-0.9,0.6s-0.5,0.6-0.6,0.9c-0.2,0.3-0.3,0.7-0.4,1.1l-0.9,4.9h-2.6L471.1,46.6z"/>
	<path d="M480.2,42h2.6l-1.4,7.9h0.1l3.9-3.3h3.3v0.2l-4.3,3.6l2.9,6v0.2h-3.1l-1.9-4.3l-1.4,1.1l-0.6,3.2h-2.6L480.2,42z"/>
	<path d="M497.8,54.1c-0.6,0.8-1.3,1.5-2.2,2s-1.8,0.7-3,0.7c-0.8,0-1.4-0.1-2-0.4c-0.6-0.3-1.1-0.6-1.5-1.1s-0.7-1-0.8-1.7
		c-0.1-0.6-0.2-1.3,0-2.1c0.1-0.7,0.4-1.4,0.7-2c0.4-0.6,0.8-1.2,1.4-1.7c0.5-0.5,1.1-0.9,1.8-1.1c0.7-0.2,1.4-0.4,2.1-0.4
		c0.8,0,1.5,0.1,2,0.4c0.6,0.3,1,0.6,1.4,1.1c0.3,0.5,0.6,1,0.7,1.6s0.1,1.3,0,2.1c0,0.1,0,0.2,0,0.2c0,0.1,0,0.2-0.1,0.2
		c0,0.1,0,0.1-0.1,0.2h-7.4c0,0.4,0,0.7,0.1,1s0.3,0.5,0.5,0.7s0.5,0.3,0.7,0.4c0.3,0.1,0.6,0.1,0.9,0.1c0.6,0,1.1-0.1,1.6-0.4
		c0.4-0.3,0.8-0.6,1.1-1L497.8,54.1z M496.1,50.2c0-0.2,0-0.4-0.1-0.6c-0.1-0.2-0.2-0.4-0.3-0.6c-0.2-0.2-0.4-0.3-0.6-0.5
		c-0.3-0.1-0.6-0.2-1-0.2c-0.6,0-1.1,0.2-1.6,0.5s-0.9,0.8-1.1,1.4L496.1,50.2L496.1,50.2z"/>
	<path d="M501.3,48.8h-1.7l0.4-2.3h1.7l0.5-3h2.6l-0.5,3h2.4l-0.4,2.3h-2.4l-0.7,3.9c0,0.2-0.1,0.5,0,0.7c0,0.2,0.1,0.4,0.2,0.5
		c0.1,0.2,0.4,0.3,0.7,0.3c0.2,0,0.4,0,0.6-0.1c0.1,0,0.3-0.1,0.4-0.2l0.3,2.3c-0.3,0.1-0.7,0.3-1.1,0.3c-0.4,0-0.8,0.1-1.2,0.1
		c-0.5,0-0.9-0.1-1.3-0.2c-0.4-0.2-0.7-0.4-0.9-0.6c-0.5-0.6-0.7-1.5-0.5-2.6L501.3,48.8z"/>
	<path d="M508.8,46.6h2.5l-0.2,1.2h0.2c0.3-0.4,0.8-0.8,1.3-1.1c0.6-0.3,1.2-0.4,2-0.4c0.6,0,1.2,0.1,1.7,0.4c0.5,0.3,1,0.6,1.3,1.1
		c0.4,0.5,0.6,1,0.7,1.7c0.1,0.7,0.1,1.4,0,2.1c-0.1,0.8-0.4,1.5-0.8,2.1s-0.8,1.2-1.3,1.7s-1.1,0.8-1.7,1.1s-1.2,0.4-1.9,0.4
		c-0.8,0-1.4-0.1-1.8-0.4c-0.5-0.3-0.8-0.7-0.9-1.1h-0.2l-0.1,1.4l-0.7,4.1h-2.6L508.8,46.6z M512.5,54.3c0.3,0,0.7-0.1,1-0.2
		c0.3-0.1,0.7-0.3,0.9-0.6c0.3-0.2,0.5-0.5,0.7-0.9c0.2-0.3,0.4-0.7,0.4-1.2c0.1-0.4,0.1-0.8,0-1.2c-0.1-0.3-0.2-0.6-0.4-0.9
		c-0.2-0.2-0.4-0.4-0.7-0.6c-0.3-0.1-0.6-0.2-1-0.2c-0.4,0-0.7,0.1-1,0.2c-0.3,0.1-0.7,0.3-0.9,0.6c-0.3,0.2-0.5,0.5-0.7,0.9
		c-0.2,0.4-0.4,0.7-0.4,1.2c-0.1,0.4-0.1,0.8,0,1.2c0.1,0.4,0.2,0.6,0.4,0.9c0.2,0.2,0.4,0.4,0.7,0.6
		C511.8,54.3,512.2,54.3,512.5,54.3z"/>
	<path d="M518.9,56.4l2.5-14.4h2.6l-2.5,14.4H518.9z"/>
	<path d="M530,55.4h-0.2c-0.4,0.4-0.8,0.7-1.3,1s-1.1,0.4-1.8,0.4c-0.5,0-1-0.1-1.4-0.3c-0.4-0.2-0.8-0.4-1.1-0.7s-0.5-0.7-0.6-1.1
		c-0.1-0.4-0.1-0.9,0-1.4c0.1-0.5,0.3-1,0.5-1.4c0.3-0.4,0.6-0.8,1-1.1c0.4-0.3,0.9-0.5,1.4-0.7s1.1-0.2,1.6-0.2
		c0.6,0,1.2,0.1,1.6,0.2c0.4,0.1,0.7,0.2,1,0.3l0.1-0.3c0.1-0.5,0-1-0.4-1.3c-0.4-0.3-0.8-0.5-1.5-0.5c-0.9,0-1.8,0.4-2.5,1.1
		l-1.7-1.3c1.3-1.3,2.8-2,4.6-2c1.5,0,2.6,0.4,3.3,1.1c0.7,0.7,0.9,1.8,0.6,3.2l-1,5.9h-2.6L530,55.4z M530.5,52.4
		c-0.3-0.1-0.6-0.3-0.9-0.4c-0.3-0.1-0.7-0.1-1.1-0.1c-0.6,0-1.1,0.1-1.5,0.4s-0.6,0.6-0.7,1c-0.1,0.4,0,0.7,0.3,1
		c0.3,0.2,0.6,0.4,1.1,0.4c0.3,0,0.7-0.1,1-0.2c0.3-0.1,0.6-0.3,0.8-0.5c0.2-0.2,0.4-0.5,0.6-0.7C530.3,53,530.5,52.7,530.5,52.4z"
		/>
	<path d="M544.2,53.9c-0.6,0.8-1.3,1.5-2.2,2s-1.9,0.8-3,0.8c-0.8,0-1.4-0.1-2-0.4c-0.6-0.3-1.1-0.6-1.5-1.1s-0.6-1-0.8-1.7
		c-0.1-0.6-0.2-1.3,0-2.1c0.1-0.8,0.4-1.5,0.8-2.1s0.8-1.2,1.4-1.7c0.5-0.5,1.2-0.8,1.8-1.1c0.6-0.3,1.4-0.4,2.2-0.4
		c1.1,0,2.1,0.3,2.7,0.8c0.7,0.5,1.1,1.2,1.4,2l-2.6,1c-0.1-0.5-0.4-0.8-0.7-1c-0.3-0.2-0.7-0.4-1.3-0.4c-0.3,0-0.7,0.1-1,0.2
		c-0.3,0.1-0.6,0.3-0.9,0.6c-0.3,0.2-0.5,0.5-0.7,0.9s-0.3,0.7-0.4,1.2c-0.1,0.4-0.1,0.8,0,1.2c0.1,0.4,0.2,0.6,0.4,0.9
		c0.2,0.2,0.4,0.4,0.7,0.6c0.3,0.1,0.6,0.2,1,0.2c0.6,0,1-0.1,1.5-0.4c0.4-0.2,0.8-0.6,1.1-1.1L544.2,53.9z"/>
	<path d="M555.1,54.1c-0.6,0.8-1.3,1.5-2.2,2c-0.9,0.5-1.8,0.7-3,0.7c-0.8,0-1.4-0.1-2-0.4c-0.6-0.3-1.1-0.6-1.5-1.1
		c-0.4-0.5-0.7-1-0.8-1.7c-0.1-0.6-0.2-1.3,0-2.1c0.1-0.7,0.4-1.4,0.7-2c0.4-0.6,0.8-1.2,1.4-1.7c0.5-0.5,1.1-0.9,1.8-1.1
		c0.7-0.3,1.4-0.4,2.1-0.4c0.8,0,1.5,0.1,2,0.4c0.6,0.3,1,0.6,1.4,1.1c0.3,0.5,0.6,1,0.7,1.6c0.1,0.6,0.1,1.3,0,2.1
		c0,0.1,0,0.2,0,0.2c0,0.1,0,0.2-0.1,0.2c0,0.1,0,0.1-0.1,0.2h-7.4c0,0.4,0,0.7,0.1,1c0.1,0.3,0.3,0.5,0.5,0.7s0.5,0.3,0.7,0.4
		c0.3,0.1,0.6,0.1,0.9,0.1c0.6,0,1.1-0.1,1.6-0.4c0.4-0.3,0.8-0.6,1.1-1L555.1,54.1z M553.3,50.2c0-0.2,0-0.4-0.1-0.6
		c-0.1-0.2-0.2-0.4-0.3-0.6c-0.2-0.2-0.4-0.3-0.6-0.5c-0.3-0.1-0.6-0.2-1-0.2c-0.6,0-1.1,0.2-1.6,0.5s-0.9,0.8-1.1,1.4L553.3,50.2
		L553.3,50.2z"/>
</g>
</svg>
