<?xml version="1.0" encoding="utf-8"?>
<!-- Generator: Adobe Illustrator 25.2.0, SVG Export Plug-In . SVG Version: 6.00 Build 0)  -->
<svg version="1.1" id="Layer_1" xmlns="http://www.w3.org/2000/svg" xmlns:xlink="http://www.w3.org/1999/xlink" x="0px" y="0px"
	 viewBox="0 0 500 500" style="enable-background:new 0 0 500 500;" xml:space="preserve">
<style type="text/css">
	.st0{fill:none;stroke:#939393;stroke-width:5;stroke-linecap:round;stroke-linejoin:round;stroke-miterlimit:10;}
</style>
<path class="st0" d="M478,108.2c-11,31.8-37,81.2-37,105.3c0,24.1-1.9,0.6-27.3,31.8c-25.4,31.2-48.8,53.3-51.4,74.8
	c-2.6,21.5-16.2,28.6-27.9,53.3c-11.7,24.7-18.8,42.2-19.5,55.9c0,0-20.8,15.1-33,4.9c-12.2-10.2-1.5-5.3-24.4-17.1
	c-22.9-11.7-8.8-17.1-4.9-23.4c3.9-6.3-1.5-15.6-22.9-21.5c-21.5-5.8-36.1-1.5-50.2-6.8c-14.1-5.3-4.4-21-22.9-12.2
	c-18.5,8.8-24.4,7.8-35.1-8.8c-10.7-16.6-19.5-12.7-19.1-30.2c0.4-17.6-16-13.7-25.7-11.7c-9.8,1.9-17.6-24.4-17.6-24.4h-40v-195
	H317L322,78c0,0,7.8-1,28.6,0c20.8,1.1,14.3,1.6,39,12c24.7,10.4,0,0,14.3,2.6c14.3,2.6,18.2,9.1,22.1,0c3.9-9.1,6.5-15.6,24.7-10.8
	c18.2,4.7,13-15.1,13-15.1l12.6-4.2C480.2,77.8,483.2,93.1,478,108.2z"/>
</svg>
