<?xml version="1.0" encoding="utf-8"?>
<!-- Generator: Adobe Illustrator 25.2.0, SVG Export Plug-In . SVG Version: 6.00 Build 0)  -->
<svg version="1.1" id="Layer_1" xmlns="http://www.w3.org/2000/svg" xmlns:xlink="http://www.w3.org/1999/xlink" x="0px" y="0px"
	 viewBox="0 0 500 500" style="enable-background:new 0 0 500 500;" xml:space="preserve">
<style type="text/css">
	.st0{fill:none;stroke:#939393;stroke-width:5;stroke-linecap:round;stroke-linejoin:round;stroke-miterlimit:10;}
</style>
<path class="st0" d="M393.5,40.6v357.9c-6,2-11.4,4.9-15.8,8.8c-15.2,13.5-13.8,4-30.7,9.1c-16.8,5-23.2,4-25.6,19.9
	c-2.4,15.8-17.8,17.9-33.7,16.2c-15.8-1.7-35.4-7.7-45.5,4.7c-10.1,12.4-13.8,22.9-32.7,22.9s-22.9-0.7-31.7-1
	c-8.8-0.3-12.1-8.1-12.1-8.1s-4.4-14.5,7.1-17.2c11.5-2.7-1.3-22.2,0-29.3c1.4-7.1-4-6.7-12.4-21.6c-8.4-14.8-12.5-18.2-12.8-34.7
	c-0.3-16.5-17.5-25.9-22.6-35.4c-5-9.4-16.5-25.3-10.8-32.3c5.7-7.1-4.1-19.2-7.1-35.4s3.7-6.1,2.4-27.3
	c-1.3-21.2-1.3-23.6,8.4-21.2c9.8,2.4,8.1-2,22.2-15.5c14.1-13.5,19.6-22.2,35.4-21.6c15.8,0.7,13.5-9.1,31.3-13.5
	c17.8-4.4,26.9-6.7,37.4-24.2c10.4-17.5,7.1-16.5,16.5-20.2c9.4-3.7-2.4-13.5,8.1-23.6c10.4-10.1,11.8-4,23.6-8.1
	c11.8-4.1-0.7-7.1,7.7-22.9c8.4-15.8,1-19.2,16.5-20.9c15.5-1.7,9.8-18.5,21.2-20.2c11.5-1.7,6.7-10.4,20.5-3
	c13.8,7.4,22.6,10.1,20.2,16.8c-2.4,6.7,2.7,9.1,6.7,6.1C388.5,43.6,390,40.7,393.5,40.6z"/>
</svg>
