<?xml version="1.0" encoding="utf-8"?>
<!-- Generator: Adobe Illustrator 25.2.0, SVG Export Plug-In . SVG Version: 6.00 Build 0)  -->
<svg version="1.1" id="Layer_1" xmlns="http://www.w3.org/2000/svg" xmlns:xlink="http://www.w3.org/1999/xlink" x="0px" y="0px"
	 viewBox="0 0 500 500" style="enable-background:new 0 0 500 500;" xml:space="preserve">
<style type="text/css">
	.st0{fill:none;stroke:#939393;stroke-width:5;stroke-linecap:round;stroke-linejoin:round;stroke-miterlimit:10;}
</style>
<path class="st0" d="M395,460.5c0,0,3,11.4-7.5,8.7c-10.4-2.7-11.9,1-14.2,6.2c-2.2,5.2-4.5,1.5-12.6,0c-8.2-1.5,6,4.5-8.2-1.5
	c-14.2-6-10.4-6.2-22.3-6.8c-11.9-0.6-16.4,0-16.4,0l-2.9,2.9H140.3v-85.4H97.8V161.7c3.3,3.2,7.6,6.2,13.8,8
	c17.9,5.2,22,32,39.5,29.1c17.5-3,29-41.7,29.8-70c0.8-28.3,3.7-37.3,10.4-41.3c6.7-4.1-4.5-32.4,6.3-34.6
	c10.8-2.2,12.3-38.4,18.6-29.4c6.3,8.9-0.7,30.1,5.2,32.8c6,2.6,8.9,1.5,6,14.5c-3,13,16.8,19,12.7,32.4
	c-4.1,13.4-11.2,18.2-2.2,23.1c8.9,4.9,9.3-9.7,17.1,2.3c7.8,11.9,21.2,10.4,13.8,23.5c-7.4,13,1.5,24.9,7.1,31.7
	c5.6,6.7-3.3,18.6-3.3,33.5s16.4,7.8,20.9,25.7c4.5,17.9,28.7,19.4,33.5,28.3c4.8,8.9,1.9,10.4,4.8,22.3c3,11.9,6.3,29.1,16,27.9
	c9.7-1.1,17.9-8.2,17.1,13.4c-0.7,21.6,5.2,28.3,15.6,36.5c10.4,8.2,8.2,12.3,13,26.1c4.8,13.8,9.3,12.7,5.2,31.3
	c-2.2,9.8,1,19.8,3.5,29.6L395,460.5z"/>
</svg>
