<?xml version="1.0" encoding="utf-8"?>
<!-- Generator: Adobe Illustrator 25.2.0, SVG Export Plug-In . SVG Version: 6.00 Build 0)  -->
<svg version="1.1" id="Layer_1" xmlns="http://www.w3.org/2000/svg" xmlns:xlink="http://www.w3.org/1999/xlink" x="0px" y="0px"
	 viewBox="0 0 500 500" style="enable-background:new 0 0 500 500;" xml:space="preserve">
<style type="text/css">
	.st0{fill:none;stroke:#939393;stroke-width:5;stroke-linecap:round;stroke-linejoin:round;stroke-miterlimit:10;}
</style>
<path class="st0" d="M433,28.5v443.1c-4.9-4.8-10.9-10-23.2-14.5c-29.4-10.7-6.8-68.9-26-78.5c-19.2-9.6-29.9,3.4-25.4-15.8
	c4.5-19.2,14.7-10.2,4.5-19.2c-10.2-9-16.4-3.4-27.1,0c-10.7,3.4-11.3-2.8-1.1-18.6c10.2-15.8,17.5-16.4,16.4-32.2
	c-1.1-15.8,1.1-26.5-9-21.5c-10.2,5.1,9.6,24.8-22,27.7c-31.6,2.9-19.8,42.4-37.9,31.1c-18-11.3-2.8-29.4-27.7-35
	c-24.8-5.6-32.2-9-38.9-33.9c-6.8-24.8-40.1-25.4-71.7-31.1c-22.4-4-52.3-4-76.8,4.4v-206H433z"/>
</svg>
