<?xml version="1.0" encoding="utf-8"?>
<!-- Generator: Adobe Illustrator 25.2.0, SVG Export Plug-In . SVG Version: 6.00 Build 0)  -->
<svg version="1.1" id="Layer_1" xmlns="http://www.w3.org/2000/svg" xmlns:xlink="http://www.w3.org/1999/xlink" x="0px" y="0px"
	 viewBox="0 0 500 500" style="enable-background:new 0 0 500 500;" xml:space="preserve">
<style type="text/css">
	.st0{fill:none;stroke:#939393;stroke-width:5;stroke-linecap:round;stroke-linejoin:round;stroke-miterlimit:10;}
</style>
<path class="st0" d="M136,110.3c11.2,1.8,32.9-3,56.8,16.5c23.9,19.4,35.9,35.9,79.3,32.9c43.4-3,47.9-25.1,89.7-24.5
	c41.9,0.6,9,14,10.5,57.4s20.9,58.3-4.5,83.8s-12,64.1-25.4,64.1s-25.4-34.6-37.4,0c-12,34.6-48.6,63-87.1,43.6
	c-38.5-19.4-17.6-38.9-44.5-67.3c-26.9-28.4-15-52-3-66.4c12-14.4-28.4-63.7-34.4-83.2C130,147.7,96.1,103.8,136,110.3z"/>
</svg>
