<?xml version="1.0" encoding="utf-8"?>
<!-- Generator: Adobe Illustrator 25.2.0, SVG Export Plug-In . SVG Version: 6.00 Build 0)  -->
<svg version="1.1" id="Layer_1" xmlns="http://www.w3.org/2000/svg" xmlns:xlink="http://www.w3.org/1999/xlink" x="0px" y="0px"
	 viewBox="0 0 500 500" style="enable-background:new 0 0 500 500;" xml:space="preserve">
<style type="text/css">
	.st0{fill:none;stroke:#939393;stroke-width:5;stroke-linecap:round;stroke-linejoin:round;stroke-miterlimit:10;}
</style>
<path class="st0" d="M380.8,189.9V483H119.2V141.3c1.7-0.1,3.8,0.3,6.4,1.3c10.3,3.9,14.7,0,13.7-4.4c-1-4.4-3.4-17.1,3.4-23.5
	c6.9-6.4-2,2.9,10.3-16.6c12.2-19.6-4.4-42.1,23-42.6c27.4-0.5,9.3,9.3,31.8,0c22.5-9.3,21.1-10.8,17.2-15.7
	c-3.9-4.9-2.4-13.2-13.7-13.7c-11.3-0.5,2-12.7,13.2-7.8c11.3,4.9,5.4,16.7,20.6,17.2c15.2,0.5,12.7-7.9,26.9,2
	c14.2,9.8,15.7,17.2,28.9,12.2c13.2-4.9,7.9-4.4,15.2-2.4c7.3,2,19.1-17.1,23.5-12.7c4.4,4.4-10.8,26.9-2,28.4
	c8.8,1.5,4.9-15.2,15.2-8.3c10.3,6.8-1.5,2.4-3.9,19.1c-2.4,16.7,6.9,15.7-9.8,20.1c-16.7,4.4-18.1,7.9-12.7,24
	c5.4,16.2-8.3,4.4-2,26c6.4,21.6,27.9,20.1,38.2,25.5C369.4,172.5,372.7,181.9,380.8,189.9z"/>
</svg>
